<?xml version="1.0" encoding="UTF-8" standalone="no"?><!DOCTYPE svg PUBLIC "-//W3C//DTD SVG 1.1//EN" "http://www.w3.org/Graphics/SVG/1.1/DTD/svg11.dtd"><svg width="100%" height="100%" viewBox="0 0 1448 423" version="1.1" xmlns="http://www.w3.org/2000/svg" xmlns:xlink="http://www.w3.org/1999/xlink" xml:space="preserve" xmlns:serif="http://www.serif.com/" style="fill-rule:evenodd;clip-rule:evenodd;stroke-linejoin:round;stroke-miterlimit:2;"><rect id="Artboard2" x="0" y="0" width="1447.83" height="422.16" style="fill:none;"/><g><g><g><circle cx="346.178" cy="336.223" r="20.375" style="fill:#fc0;"/><circle cx="279.277" cy="336.223" r="17.465" style="fill:#fc0;"/><circle cx="218.238" cy="336.223" r="14.554" style="fill:#fc0;"/><circle cx="162.881" cy="336.223" r="11.643" style="fill:#fc0;"/><circle cx="113.585" cy="336.223" r="8.732" style="fill:#fc0;"/></g><circle cx="413.079" cy="336.223" r="17.465" style="fill:#fc0;"/><circle cx="474.118" cy="336.223" r="14.554" style="fill:#fc0;"/><circle cx="529.474" cy="336.223" r="11.643" style="fill:#fc0;"/><circle cx="578.771" cy="336.223" r="8.732" style="fill:#fc0;"/></g><g><path d="M345.675,299.884c0,0 -101.876,-71.963 -275.473,-38.388l101.046,-172.069c0,0 107.089,3.118 166.769,56.907c0,0 -106.365,-38.923 -156.071,-25.593l-58.181,102.368c0,0 111.055,-5.069 221.91,76.775Z" style="fill:#039;fill-opacity:0.62;"/><path d="M157.112,206.96l80.345,-141.991c0,0 53.672,4.781 107.126,47.872c0,0 -61.886,-25.934 -87.272,-16.838l-54.168,95.783c0,0 100.165,41.705 141.44,96.156c0,0 -106.184,-70.697 -187.471,-80.982Z" style="fill:#039;"/></g><g><path d="M349.322,299.884c0,0 101.876,-71.963 275.473,-38.388l-101.046,-172.069c0,0 -107.088,3.118 -166.769,56.907c0,0 106.366,-38.923 156.071,-25.593l58.181,102.368c0,0 -111.055,-5.069 -221.91,76.775Z" style="fill:#039;fill-opacity:0.62;"/><path d="M537.885,206.96l-80.344,-141.991c0,0 -53.673,4.781 -107.126,47.872c0,0 61.885,-25.934 87.272,-16.838l54.167,95.783c0,0 -100.164,41.705 -141.439,96.156c0,0 106.183,-70.697 187.47,-80.982Z" style="fill:#039;"/></g></g><text x="687.695px" y="179.526px" style="font-family:'BellMTBold', 'Bell MT', serif;font-weight:700;font-size:136.355px;">Insolitus</text><g transform="matrix(0.20973,0,0,0.20973,-3.24697,-537.848)"><text x="3310px" y="3865.79px" style="font-family:'BookAntiqua', 'Book Antiqua', serif;font-size:263.618px;">E<tspan x="3471.56px 3677.13px 3853.75px 4061.51px 4221.27px 4382.82px 4471.14px 4610.04px 4801.97px 5007.55px 5095.9px 5243.04px 5448.62px 5668.23px 5872.78px 6078.36px 6265.78px 6354.1px " y="3865.79px 3865.79px 3865.79px 3865.79px 3865.79px 3865.79px 3865.79px 3865.79px 3865.79px 3865.79px 3865.79px 3865.79px 3865.79px 3865.79px 3865.79px 3865.79px 3865.79px 3865.79px ">UROPEJSKA FUNDACJA</tspan></text><text x="3310px" y="4179.81px" style="font-family:'BookAntiqua', 'Book Antiqua', serif;font-size:263.618px;">W<tspan x="3580.21px 3725.17px 3890.99px 3986.4px 4154.02px 4336.69px 4548.34px 4774.01px 4869.41px 5081.05px 5177.47px 5345.09px 5555.7px 5767.34px 5965.34px 6176.98px 6370.47px 6464.85px " y="4179.81px 4179.81px 4179.81px 4179.81px 4179.81px 4179.81px 4179.81px 4179.81px 4179.81px 4179.81px 4179.81px 4179.81px 4179.81px 4179.81px 4179.81px 4179.81px 4179.81px 4179.81px ">SPIERANIA EDUKACJI</tspan></text></g></svg>